<?xml version="1.0" standalone="no"?>
<!DOCTYPE svg PUBLIC "-//W3C//DTD SVG 20010904//EN"
 "http://www.w3.org/TR/2001/REC-SVG-20010904/DTD/svg10.dtd">
<svg version="1.0" xmlns="http://www.w3.org/2000/svg"
 width="260.000000pt" height="260.000000pt" viewBox="0 0 260.000000 260.000000"
 preserveAspectRatio="xMidYMid meet">
<metadata>
Created by potrace 1.11, written by Peter Selinger 2001-2013
</metadata>
<g transform="translate(0.000000,260.000000) scale(0.100000,-0.100000)"
fill="#000000" stroke="none">
<path d="M0 1300 l0 -1300 1300 0 1300 0 0 1300 0 1300 -1300 0 -1300 0 0
-1300z m1438 874 c21 -4 22 -9 22 -93 l0 -88 39 -7 c21 -3 74 -24 117 -45 l79
-40 55 54 c31 30 60 55 65 55 6 0 55 -45 110 -100 l99 -100 -59 -60 -59 -59
42 -88 c23 -48 45 -102 48 -120 l6 -32 87 -3 86 -3 0 -145 0 -145 -86 -3 -85
-3 -14 -51 c-7 -28 -29 -82 -48 -120 l-36 -69 59 -59 59 -60 -99 -100 c-55
-55 -104 -100 -110 -100 -6 0 -35 24 -64 54 l-54 55 -61 -31 c-34 -17 -86 -39
-116 -48 l-55 -18 -3 -86 c-3 -79 -4 -86 -25 -90 -148 -30 -367 3 -520 80
-235 118 -407 332 -469 582 -30 123 -30 304 0 425 44 175 160 358 302 475 80
65 241 146 335 168 114 27 273 35 353 18z"/>
<path d="M1169 1792 c-135 -36 -257 -139 -325 -277 -33 -68 -38 -85 -42 -176
-6 -120 8 -190 52 -274 96 -183 284 -287 490 -272 103 8 163 28 249 85 213
139 286 421 170 651 -109 216 -355 325 -594 263z m268 -268 c174 -108 173
-341 -2 -449 -43 -27 -57 -30 -129 -30 -91 0 -123 13 -182 72 -52 52 -74 105
-74 183 0 80 23 133 80 189 55 53 108 72 193 67 53 -3 77 -9 114 -32z"/>
</g>
</svg>
